<svg width="48" height="32" viewBox="0 0 48 32" fill="none" xmlns="http://www.w3.org/2000/svg">
<path d="M42 18.6665C41.4696 18.6665 40.9609 18.807 40.5858 19.057C40.2107 19.3071 40 19.6462 40 19.9998V25.3332C40 25.6868 39.7893 26.0259 39.4142 26.276C39.0391 26.526 38.5304 26.6665 38 26.6665H10C9.46957 26.6665 8.96086 26.526 8.58579 26.276C8.21071 26.0259 8 25.6868 8 25.3332V19.9998C8 19.6462 7.78929 19.3071 7.41421 19.057C7.03914 18.807 6.53043 18.6665 6 18.6665C5.46957 18.6665 4.96086 18.807 4.58579 19.057C4.21071 19.3071 4 19.6462 4 19.9998V25.3332C4 26.394 4.63214 27.4115 5.75736 28.1616C6.88258 28.9117 8.4087 29.3332 10 29.3332H38C39.5913 29.3332 41.1174 28.9117 42.2426 28.1616C43.3679 27.4115 44 26.394 44 25.3332V19.9998C44 19.6462 43.7893 19.3071 43.4142 19.057C43.0391 18.807 42.5304 18.6665 42 18.6665ZM22.58 20.9465C22.7702 21.0679 22.9945 21.163 23.24 21.2265C23.4794 21.297 23.7383 21.3335 24 21.3335C24.2617 21.3335 24.5206 21.297 24.76 21.2265C25.0055 21.163 25.2298 21.0679 25.42 20.9465L33.42 15.6132C33.7966 15.3621 34.0082 15.0216 34.0082 14.6665C34.0082 14.3114 33.7966 13.9709 33.42 13.7198C33.0434 13.4688 32.5326 13.3277 32 13.3277C31.4674 13.3277 30.9566 13.4688 30.58 13.7198L26 16.7865V3.99984C26 3.64622 25.7893 3.30708 25.4142 3.05703C25.0391 2.80698 24.5304 2.6665 24 2.6665C23.4696 2.6665 22.9609 2.80698 22.5858 3.05703C22.2107 3.30708 22 3.64622 22 3.99984V16.7865L17.42 13.7198C17.2335 13.5955 17.0121 13.4969 16.7685 13.4296C16.5249 13.3623 16.2637 13.3277 16 13.3277C15.7363 13.3277 15.4751 13.3623 15.2315 13.4296C14.9879 13.4969 14.7665 13.5955 14.58 13.7198C14.3935 13.8442 14.2456 13.9917 14.1447 14.1542C14.0438 14.3166 13.9918 14.4907 13.9918 14.6665C13.9918 14.8423 14.0438 15.0164 14.1447 15.1788C14.2456 15.3413 14.3935 15.4889 14.58 15.6132L22.58 20.9465Z" fill="black"/>
</svg>
