<svg width="40" height="38" viewBox="0 0 40 38" fill="none" xmlns="http://www.w3.org/2000/svg">
<path fill-rule="evenodd" clip-rule="evenodd" d="M9.78795 22.1665H6.52532V31.6665H9.78795V22.1665ZM13.0506 34.8332H9.78795H6.52532C4.72342 34.8332 3.2627 33.4154 3.2627 31.6665V22.1665C3.2627 20.4176 4.72342 18.9998 6.52532 18.9998H9.78795L12.8172 11.6494C12.9714 11.2753 13.0506 10.8762 13.0506 10.4733V4.74984C13.0506 3.87539 13.7809 3.1665 14.6819 3.1665H16.9461C20.917 3.1665 23.9673 6.58009 23.4058 10.3955L22.8385 14.2498H29.9144C33.9136 14.2498 36.9718 17.7097 36.3637 21.5462L35.7473 25.4351C34.8903 30.8419 30.0971 34.8332 24.4609 34.8332H13.0506ZM13.0506 31.6665V19.6097L15.8465 12.8255C16.1548 12.0774 16.3132 11.2791 16.3132 10.4733V6.33317H16.9461C18.9316 6.33317 20.4567 8.03997 20.1759 9.94767L19.0766 17.4165H29.9144C31.914 17.4165 33.4431 19.1465 33.139 21.0647L32.5226 24.9536C31.9105 28.8156 28.4867 31.6665 24.4609 31.6665H13.0506Z" fill="black"/>
</svg>
