<svg width="38" height="39" viewBox="0 0 38 39" fill="none" xmlns="http://www.w3.org/2000/svg">
<path d="M13.4443 18.3465L22.406 9.16524C22.5532 9.01293 22.7283 8.89204 22.9212 8.80954C23.1142 8.72705 23.3211 8.68457 23.5301 8.68457C23.7392 8.68457 23.9461 8.72705 24.139 8.80954C24.332 8.89204 24.5071 9.01293 24.6543 9.16524C24.9492 9.46971 25.1147 9.88157 25.1147 10.3109C25.1147 10.7402 24.9492 11.152 24.6543 11.4565L16.8168 19.5815L24.6543 27.6252C24.9492 27.9297 25.1147 28.3416 25.1147 28.7709C25.1147 29.2002 24.9492 29.612 24.6543 29.9165C24.5077 30.07 24.3328 30.1922 24.1398 30.2759C23.9468 30.3596 23.7396 30.4031 23.5301 30.404C23.3206 30.4031 23.1134 30.3596 22.9204 30.2759C22.7275 30.1922 22.5526 30.07 22.406 29.9165L13.4443 20.7352C13.2836 20.5831 13.1553 20.3984 13.0676 20.1928C12.9799 19.9873 12.9346 19.7653 12.9346 19.5409C12.9346 19.3165 12.9799 19.0945 13.0676 18.8889C13.1553 18.6833 13.2836 18.4987 13.4443 18.3465Z" fill="black"/>
</svg>
