<svg width="42" height="32" viewBox="0 0 42 32" fill="none" xmlns="http://www.w3.org/2000/svg">
<path d="M35.5952 12.4267L11.0952 3.09334C10.1283 2.72669 9.03652 2.59616 7.9687 2.71954C6.90088 2.84293 5.90899 3.21424 5.12827 3.78283C4.34754 4.35142 3.81598 5.08964 3.60605 5.89682C3.39612 6.70401 3.51804 7.54088 3.95519 8.29334L8.15519 15.4533C8.25049 15.6265 8.29957 15.8123 8.29957 16C8.29957 16.1877 8.25049 16.3736 8.15519 16.5467L3.95519 23.7067C3.59941 24.3156 3.44901 24.9827 3.51765 25.6472C3.58629 26.3117 3.87179 26.9526 4.34821 27.5116C4.82463 28.0707 5.47686 28.5301 6.24563 28.8483C7.0144 29.1664 7.87533 29.3332 8.75019 29.3333C9.56959 29.3271 10.3768 29.1813 11.1127 28.9067L35.6127 19.5733C36.4817 19.2403 37.2122 18.7297 37.7226 18.0988C38.2331 17.4678 38.5034 16.7412 38.5034 16C38.5034 15.2588 38.2331 14.5322 37.7226 13.9012C37.2122 13.2703 36.4817 12.7598 35.6127 12.4267H35.5952ZM34.0377 17.1867L9.53769 26.52C9.21597 26.6377 8.85472 26.6776 8.50237 26.6345C8.15001 26.5913 7.8234 26.4671 7.56634 26.2785C7.30927 26.0899 7.13403 25.8459 7.06412 25.5792C6.9942 25.3126 7.03296 25.0361 7.17519 24.7867L11.3577 17.6267C11.4118 17.5311 11.4586 17.4331 11.4977 17.3333H23.5552C24.0193 17.3333 24.4644 17.1929 24.7926 16.9428C25.1208 16.6928 25.3052 16.3536 25.3052 16C25.3052 15.6464 25.1208 15.3072 24.7926 15.0572C24.4644 14.8072 24.0193 14.6667 23.5552 14.6667H11.4977C11.4586 14.5669 11.4118 14.469 11.3577 14.3733L7.17519 7.21334C7.03296 6.96396 6.9942 6.68741 7.06412 6.42077C7.13403 6.15413 7.30927 5.91015 7.56634 5.72154C7.8234 5.53293 8.15001 5.40871 8.50237 5.36554C8.85472 5.32237 9.21597 5.36231 9.53769 5.48001L34.0377 14.8133C34.3243 14.9252 34.5649 15.0952 34.7329 15.3046C34.9009 15.514 34.9898 15.7546 34.9898 16C34.9898 16.2454 34.9009 16.486 34.7329 16.6954C34.5649 16.9048 34.3243 17.0748 34.0377 17.1867Z" fill="black"/>
</svg>
