<svg width="41" height="38" viewBox="0 0 41 38" fill="none" xmlns="http://www.w3.org/2000/svg">
<path d="M36.4218 15.1207L33.193 14.1232L34.7134 11.3048C34.8675 11.0098 34.9191 10.6778 34.861 10.3545C34.8028 10.0312 34.6379 9.73256 34.3888 9.49984L30.7501 6.12734C30.4977 5.89315 30.1724 5.73817 29.82 5.68421C29.4676 5.63025 29.1058 5.68001 28.7855 5.82651L25.7447 7.23568L24.6684 4.24318C24.5548 3.93125 24.339 3.65992 24.0512 3.46694C23.7634 3.27397 23.4178 3.16895 23.0626 3.16651H17.9376C17.5794 3.16565 17.2301 3.26914 16.9388 3.46234C16.6476 3.65555 16.4293 3.92869 16.3147 4.24318L15.2384 7.23568L12.1976 5.82651C11.8793 5.68366 11.521 5.63588 11.1722 5.68977C10.8234 5.74365 10.5012 5.89654 10.2501 6.12734L6.61134 9.49984C6.35865 9.7338 6.19144 10.0353 6.13322 10.3619C6.075 10.6885 6.12869 11.0238 6.28675 11.3207L7.80717 14.139L4.57842 15.1365C4.24187 15.2419 3.94911 15.4418 3.74091 15.7086C3.5327 15.9753 3.41939 16.2956 3.41675 16.6248V21.3748C3.41583 21.7068 3.52749 22.0306 3.73594 22.3005C3.9444 22.5704 4.23911 22.7728 4.57842 22.879L7.80717 23.8765L6.28675 26.6948C6.13263 26.9898 6.08108 27.3219 6.13921 27.6452C6.19735 27.9685 6.36231 28.2671 6.61134 28.4998L10.2501 31.8723C10.5025 32.1065 10.8278 32.2615 11.1802 32.3155C11.5326 32.3694 11.8944 32.3197 12.2147 32.1732L15.2555 30.764L16.3318 33.7565C16.4464 34.071 16.6647 34.3441 16.9559 34.5373C17.2472 34.7305 17.5965 34.834 17.9547 34.8332H23.0797C23.4378 34.834 23.7872 34.7305 24.0784 34.5373C24.3696 34.3441 24.588 34.071 24.7026 33.7565L25.7788 30.764L28.8197 32.1732C29.1359 32.3124 29.4907 32.3582 29.836 32.3044C30.1813 32.2506 30.5004 32.0998 30.7501 31.8723L34.3888 28.4998C34.6415 28.2659 34.8087 27.9644 34.867 27.6378C34.9252 27.3112 34.8715 26.9759 34.7134 26.679L33.193 23.8607L36.4218 22.8632C36.7583 22.7578 37.0511 22.5579 37.2593 22.2911C37.4675 22.0244 37.5808 21.7041 37.5834 21.3748V16.6248C37.5843 16.2929 37.4727 15.9691 37.2642 15.6992C37.0558 15.4293 36.7611 15.2269 36.4218 15.1207ZM34.1668 20.2348L32.1168 20.8682C31.6453 21.0099 31.2129 21.245 30.8493 21.5571C30.4857 21.8692 30.1997 22.2509 30.0112 22.6757C29.8226 23.1005 29.7361 23.5582 29.7575 24.0171C29.7789 24.476 29.9077 24.925 30.1351 25.3332L31.1088 27.1382L29.2297 28.8798L27.3334 27.9298C26.8953 27.7276 26.4155 27.6149 25.9263 27.5994C25.4371 27.5839 24.9501 27.6661 24.4981 27.8402C24.0462 28.0144 23.6399 28.2765 23.3067 28.6088C22.9736 28.9412 22.7214 29.336 22.5672 29.7665L21.8838 31.6665H19.1676L18.4843 29.7665C18.3313 29.3296 18.0777 28.9288 17.741 28.5918C17.4042 28.2548 16.9924 27.9897 16.5341 27.815C16.0757 27.6403 15.5819 27.56 15.0868 27.5799C14.5916 27.5997 14.1071 27.7191 13.6668 27.9298L11.7193 28.8323L9.84009 27.0907L10.8651 25.3332C11.0925 24.925 11.2213 24.476 11.2427 24.0171C11.2641 23.5582 11.1775 23.1005 10.989 22.6757C10.8005 22.2509 10.5145 21.8692 10.1509 21.5571C9.78732 21.245 9.35482 21.0099 8.88342 20.8682L6.83342 20.2348V17.7648L8.88342 17.1315C9.35482 16.9898 9.78732 16.7547 10.1509 16.4426C10.5145 16.1305 10.8005 15.7488 10.989 15.324C11.1775 14.8992 11.2641 14.4415 11.2427 13.9826C11.2213 13.5237 11.0925 13.0746 10.8651 12.6665L9.89134 10.909L11.7705 9.16734L13.6668 10.0698C14.1071 10.2806 14.5916 10.4 15.0868 10.4198C15.5819 10.4397 16.0757 10.3594 16.5341 10.1847C16.9924 10.01 17.4042 9.74491 17.741 9.40792C18.0777 9.07094 18.3313 8.67009 18.4843 8.23318L19.1676 6.33318H21.8326L22.5159 8.23318C22.6688 8.67009 22.9225 9.07094 23.2592 9.40792C23.596 9.74491 24.0078 10.01 24.4661 10.1847C24.9244 10.3594 25.4183 10.4397 25.9134 10.4198C26.4085 10.4 26.8931 10.2806 27.3334 10.0698L29.2809 9.16734L31.1601 10.909L30.1351 12.6665C29.9168 13.0725 29.7952 13.5173 29.7786 13.9707C29.7619 14.4241 29.8505 14.8755 30.0384 15.2943C30.2263 15.7132 30.5091 16.0898 30.8677 16.3986C31.2263 16.7073 31.6522 16.9411 32.1168 17.084L34.1668 17.7173V20.2348ZM20.5001 12.6665C19.1486 12.6665 17.8274 13.038 16.7037 13.7339C15.58 14.4298 14.7041 15.4189 14.1869 16.5762C13.6697 17.7334 13.5344 19.0069 13.7981 20.2354C14.0617 21.464 14.7125 22.5925 15.6682 23.4782C16.6238 24.3639 17.8414 24.9671 19.167 25.2115C20.4925 25.4559 21.8665 25.3304 23.1151 24.8511C24.3637 24.3717 25.4309 23.56 26.1818 22.5185C26.9326 21.4769 27.3334 20.2525 27.3334 18.9998C27.3334 17.3201 26.6135 15.7092 25.332 14.5215C24.0505 13.3338 22.3124 12.6665 20.5001 12.6665V12.6665ZM20.5001 22.1665C19.8243 22.1665 19.1638 21.9808 18.6019 21.6328C18.04 21.2849 17.6021 20.7903 17.3435 20.2117C17.0849 19.633 17.0172 18.9963 17.1491 18.3821C17.2809 17.7678 17.6063 17.2035 18.0841 16.7607C18.562 16.3178 19.1708 16.0162 19.8335 15.894C20.4963 15.7718 21.1833 15.8345 21.8076 16.0742C22.4319 16.3139 22.9655 16.7198 23.3409 17.2405C23.7164 17.7613 23.9168 18.3735 23.9168 18.9998C23.9168 19.8397 23.5568 20.6451 22.916 21.239C22.2753 21.8329 21.4062 22.1665 20.5001 22.1665Z" fill="black"/>
</svg>
